<?xml version="1.0" encoding="utf-8"?>
<!-- Generator: Adobe Illustrator 21.0.0, SVG Export Plug-In . SVG Version: 6.00 Build 0)  -->
<svg version="1.1" id="Layer_1" xmlns="http://www.w3.org/2000/svg" xmlns:xlink="http://www.w3.org/1999/xlink" x="0px" y="0px"
	 viewBox="0 0 481.9 128.8" style="enable-background:new 0 0 481.9 128.8;" xml:space="preserve">
<style type="text/css">
	.st0{fill:#4D4D4D;}
</style>
<title>Asset 1</title>
<g id="Layer_2">
	<g id="Lager_1">
		<polygon class="st0" points="49.7,36.8 62.6,51 108.6,29.9 81.5,0 47.3,15.6 		"/>
		<polygon class="st0" points="30.3,64.9 47.8,57 42,6.7 5.1,23.3 9.4,60.7 		"/>
		<polygon class="st0" points="51.7,92.2 49.6,73.1 0,63.1 4.4,103.3 41.3,110.7 		"/>
		<polygon class="st0" points="84.3,80.3 65.6,76.4 40.7,120.5 80.2,128.8 98.7,96 		"/>
		<polygon class="st0" points="83.5,46.1 73.9,62.7 108.2,100 128.3,64.9 102.8,37.2 		"/>
		<path class="st0" d="M181.5,106.4h-34.4V24.1h33c16.1,0,25.4,9,25.4,23.1c0.1,7.1-3.9,13.7-10.2,17c5,2.3,11.3,7.5,11.3,18.5
			C206.7,98,196.2,106.4,181.5,106.4z M178.8,38.4h-15.7v18.9h15.7c6.8,0,10.6-3.8,10.6-9.5S185.7,38.5,178.8,38.4z M179.8,71.8
			h-16.7V92h16.8c7.3,0,10.7-4.6,10.7-10.2S187.2,71.8,179.8,71.8L179.8,71.8z"/>
		<path class="st0" d="M266.6,98c-5.8,5.8-12.8,9-22.2,9s-16.5-3.2-22.3-9c-8.3-8.3-8.1-18.6-8.1-32.8s-0.2-24.5,8.1-32.8
			c5.8-5.8,12.9-9,22.3-9s16.4,3.2,22.2,9c8.3,8.3,8.2,18.6,8.2,32.8S274.9,89.7,266.6,98z M254.7,42.1c-2.6-2.9-6.4-4.5-10.3-4.4
			c-3.9-0.1-7.7,1.5-10.4,4.4c-3.1,3.5-3.9,7.3-3.9,23.1s0.8,19.6,3.9,23.1c2.7,2.9,6.5,4.5,10.4,4.4c3.9,0.1,7.7-1.5,10.3-4.4
			c3.1-3.5,4-7.3,4-23.1S257.8,45.6,254.7,42.1L254.7,42.1z"/>
		<path class="st0" d="M318.1,106.4h-34.4V24.1h33c16,0,25.4,9,25.4,23.1c0.1,7.1-3.9,13.7-10.2,17c5,2.3,11.3,7.5,11.3,18.5
			C343.3,98,332.8,106.4,318.1,106.4z M315.5,38.4h-15.7v18.9h15.7c6.8,0,10.6-3.8,10.6-9.5S322.3,38.5,315.5,38.4z M316.5,71.8
			h-16.7V92h16.8c7.3,0,10.7-4.6,10.7-10.2S323.8,71.8,316.5,71.8L316.5,71.8z"/>
		<path class="st0" d="M389.7,106.4h-34.4V24.1h33c16,0,25.4,9,25.4,23.1c0.1,7.1-3.9,13.7-10.2,17c5,2.3,11.3,7.5,11.3,18.5
			C414.9,98,404.4,106.4,389.7,106.4z M387.1,38.4h-15.7v18.9h15.7c6.8,0,10.6-3.8,10.6-9.5S393.9,38.5,387.1,38.4L387.1,38.4z
			 M388.1,71.8h-16.7V92h16.8c7.3,0,10.7-4.6,10.7-10.2S395.4,71.8,388.1,71.8L388.1,71.8z"/>
		<path class="st0" d="M457.2,72.6v33.7h-15.9V72.6l-24.7-48.5H434l15.4,33.2l15.1-33.2h17.4L457.2,72.6z"/>
	</g>
</g>
</svg>
