<?xml version="1.0" encoding="UTF-8"?>
<svg width="24px" height="25px" viewBox="0 0 24 25" version="1.1" xmlns="http://www.w3.org/2000/svg" xmlns:xlink="http://www.w3.org/1999/xlink">
    <!-- Generator: Sketch 55.2 (78181) - https://sketchapp.com -->
    <title>search</title>
    <desc>Created with Sketch.</desc>
    <g id="Page-1" stroke="none" stroke-width="1" fill="none" fill-rule="evenodd">
        <g id="Desktop" transform="translate(-201.000000, -145.000000)" fill="#4D4D4D" fill-rule="nonzero">
            <g id="Search-and-filter" transform="translate(0.000000, 132.000000)">
                <g id="Search" transform="translate(182.000000, 0.000000)">
                    <g id="search" transform="translate(18.929688, 13.500000)">
                        <path d="M23.859375,22.7109375 C24,22.8515632 24.0703125,23.0273427 24.0703125,23.2382812 C24.0703125,23.4492198 24,23.6249993 23.859375,23.765625 C23.7031242,23.9218758 23.5234385,24 23.3203125,24 C23.1171865,24 22.9375008,23.9218758 22.78125,23.765625 L15.515625,16.453125 C14.6874959,17.1718786 13.7500052,17.734373 12.703125,18.140625 C11.6562448,18.546877 10.5468809,18.75 9.375,18.75 C8.07811852,18.75 6.8593807,18.5039087 5.71875,18.0117188 C4.5781193,17.5195288 3.58203551,16.8515667 2.73046875,16.0078125 C1.87890199,15.1640583 1.21093992,14.1718807 0.7265625,13.03125 C0.242185078,11.8906193 0,10.6718815 0,9.375 C0,8.07811852 0.242185078,6.8593807 0.7265625,5.71875 C1.21093992,4.5781193 1.87890199,3.58594172 2.73046875,2.7421875 C3.58203551,1.89843328 4.5781193,1.23047121 5.71875,0.73828125 C6.8593807,0.246091289 8.07811852,0 9.375,0 C10.6562564,0 11.8671818,0.246091289 13.0078125,0.73828125 C14.1484432,1.23047121 15.144527,1.89843328 15.9960938,2.7421875 C16.8476605,3.58594172 17.5195288,4.5781193 18.0117188,5.71875 C18.5039087,6.8593807 18.75,8.07811852 18.75,9.375 C18.75,10.5156307 18.5546895,11.5976511 18.1640625,12.6210938 C17.7734355,13.6445364 17.2421909,14.5624959 16.5703125,15.375 L23.859375,22.7109375 Z M9.375,17.2734375 C10.4531304,17.2734375 11.4726514,17.0664083 12.4335938,16.6523438 C13.3945361,16.2382792 14.2304652,15.6718786 14.9414062,14.953125 C15.6523473,14.2343714 16.2148417,13.3984423 16.6289062,12.4453125 C17.0429708,11.4921827 17.25,10.4687555 17.25,9.375 C17.25,8.28124453 17.0429708,7.25781727 16.6289062,6.3046875 C16.2148417,5.35155773 15.6523473,4.51562859 14.9414062,3.796875 C14.2304652,3.07812141 13.3945361,2.51172082 12.4335938,2.09765625 C11.4726514,1.68359168 10.4531304,1.4765625 9.375,1.4765625 C8.28124453,1.4765625 7.25391105,1.68359168 6.29296875,2.09765625 C5.33202645,2.51172082 4.4960973,3.07812141 3.78515625,3.796875 C3.0742152,4.51562859 2.51172082,5.35155773 2.09765625,6.3046875 C1.68359168,7.25781727 1.4765625,8.28124453 1.4765625,9.375 C1.4765625,10.4687555 1.68359168,11.4921827 2.09765625,12.4453125 C2.51172082,13.3984423 3.0742152,14.2343714 3.78515625,14.953125 C4.4960973,15.6718786 5.33202645,16.2382792 6.29296875,16.6523438 C7.25391105,17.0664083 8.28124453,17.2734375 9.375,17.2734375 Z" id="î‚"></path>
                    </g>
                </g>
            </g>
        </g>
    </g>
</svg>